<svg width="1338" height="66" viewBox="0 0 1338 66" fill="none" xmlns="http://www.w3.org/2000/svg">
<g clip-path="url(#clip0_1203:179)">
<path d="M20.7271 11.006H22.2237C27.4197 11.1185 32.5309 13.1992 36.2019 16.8826C34.8465 18.2603 33.4628 19.5819 32.1356 20.9596C30.0741 19.1039 27.5891 17.6699 24.8782 17.1638C20.8683 16.3202 16.5477 17.0794 13.1873 19.3569C9.51627 21.7469 7.03126 25.7959 6.49472 30.126C5.90171 34.3999 7.11598 38.8987 9.91162 42.2166C12.5943 45.4501 16.6889 47.4746 20.9247 47.6152C24.8782 47.8401 29.001 46.6311 31.8814 43.8755C34.1405 41.9354 35.1853 38.9831 35.5242 36.1151C30.8366 36.1151 26.1489 36.1432 21.4613 36.1151V30.3228H41.2002C42.2168 36.5368 40.7484 43.5381 36.0043 47.9807C32.8415 51.1299 28.4645 52.9857 24.0028 53.3512C19.6822 53.773 15.2205 52.9576 11.38 50.8768C6.77711 48.4306 3.10607 44.2973 1.29878 39.4329C-0.395544 34.9622 -0.423782 29.9011 1.15759 25.4022C2.59777 21.297 5.36517 17.6699 8.92326 15.1393C12.3402 12.6368 16.4913 11.259 20.7271 11.006Z" fill="#696984"/>
<path d="M133.965 12.467H140.008V52.619C138.003 52.619 135.97 52.6471 133.965 52.5909C133.993 39.235 133.965 25.851 133.965 12.467Z" fill="#696984"/>
<path d="M54.6421 26.3852C58.3696 25.6823 62.4077 26.4696 65.4858 28.6909C68.2814 30.6591 70.2299 33.7521 70.8229 37.1262C71.5854 41.0345 70.6252 45.3084 68.0837 48.4014C65.3446 51.8598 60.8546 53.7156 56.4776 53.4344C52.4677 53.2095 48.5707 51.2131 46.1987 47.9515C43.516 44.3524 42.8665 39.4037 44.3349 35.1861C45.8033 30.6591 49.9544 27.2006 54.6421 26.3852ZM55.4892 31.7276C53.9643 32.1212 52.5524 32.9929 51.5358 34.2301C48.7966 37.4917 48.9661 42.8059 51.9876 45.8426C53.7102 47.5859 56.3082 48.4014 58.7085 47.9234C60.9393 47.5297 62.8878 46.0395 63.9609 44.0712C65.8246 40.7252 65.2881 36.1139 62.436 33.499C60.6005 31.8119 57.9178 31.109 55.4892 31.7276Z" fill="#696984"/>
<path d="M84.5752 26.3852C88.8392 25.5698 93.4986 26.7508 96.6896 29.7312C101.886 34.3706 102.45 43.059 98.0168 48.4014C95.3342 51.7755 90.9854 53.6312 86.6931 53.4344C82.5985 53.3219 78.5603 51.2975 76.1318 47.9515C73.3926 44.2681 72.7996 39.2069 74.3527 34.9049C75.9059 30.5185 79.9723 27.1725 84.5752 26.3852ZM85.4223 31.7276C83.8975 32.1212 82.4855 32.9929 81.4689 34.2019C78.758 37.4073 78.871 42.6372 81.7795 45.7021C83.5021 47.5297 86.1848 48.4295 88.6698 47.9234C90.8724 47.5016 92.8491 46.0395 93.9222 44.0712C95.7577 40.6971 95.2212 36.0858 92.3408 33.4709C90.5053 31.7838 87.8226 31.109 85.4223 31.7276Z" fill="#696984"/>
<path d="M109.962 28.0161C113.209 25.9916 117.53 25.4292 121.031 27.1725C122.133 27.6505 123.036 28.4659 123.912 29.2814C123.94 28.5222 123.912 27.7349 123.94 26.9476C125.832 26.9757 127.724 26.9476 129.644 26.9757V51.7755C129.616 55.5151 128.656 59.4797 125.945 62.2071C122.98 65.2157 118.434 66.1436 114.339 65.525C109.962 64.8783 106.15 61.701 104.455 57.6802C106.15 56.8648 107.929 56.2181 109.679 55.4589C110.668 57.7645 112.673 59.7328 115.186 60.1827C117.699 60.6325 120.608 60.014 122.246 57.9333C123.997 55.7963 123.997 52.8721 123.912 50.2571C122.613 51.5224 121.116 52.6471 119.309 53.0689C115.384 54.1655 111.063 52.8158 108.042 50.1728C104.992 47.5297 103.185 43.4527 103.354 39.4037C103.439 34.8205 106.037 30.4061 109.962 28.0161ZM115.807 31.6151C114.085 31.8963 112.475 32.8523 111.374 34.1738C108.719 37.323 108.719 42.3561 111.402 45.449C112.927 47.2767 115.384 48.2889 117.756 48.0358C119.987 47.8109 122.048 46.405 123.149 44.4649C125.013 41.1751 124.703 36.7044 122.189 33.8364C120.636 32.065 118.151 31.1934 115.807 31.6151Z" fill="#696984"/>
<path d="M147.265 29.45C150.654 26.3009 155.878 25.2324 160.227 26.8913C164.35 28.4378 166.976 32.3462 168.303 36.367C162.175 38.8976 156.076 41.4001 149.948 43.9307C150.795 45.5334 152.094 46.9955 153.845 47.586C156.302 48.4576 159.239 48.1483 161.3 46.5175C162.119 45.8989 162.768 45.0835 163.39 44.2962C164.943 45.3365 166.496 46.3488 168.049 47.3891C165.846 50.6789 162.147 52.9845 158.166 53.3501C153.76 53.8843 149.073 52.1973 146.22 48.7669C141.533 43.3683 141.985 34.3144 147.265 29.45ZM150.287 34.6518C149.327 36.0296 148.931 37.7166 148.96 39.3756C153.054 37.6885 157.149 36.0015 161.244 34.2863C160.566 32.7117 158.928 31.7557 157.262 31.5026C154.579 31.0246 151.784 32.4586 150.287 34.6518Z" fill="#696984"/>
</g>
<path d="M1310.8 16.8329V0.93103H1314.05V14.6006C1313.15 15.0521 1311.93 15.9048 1310.8 16.8329ZM1305.16 21.6235C1306.16 20.4196 1307.18 19.2156 1308.41 18.1873V0.93103H1305.16V21.6235ZM1267.58 34.2647C1267.58 38.5035 1269.25 42.5417 1272.32 45.6267C1275.36 48.6867 1279.38 50.3923 1283.62 50.3923C1285.42 50.3923 1287.27 50.016 1288.57 49.3639V46.1033C1287.04 46.7554 1285.2 47.1316 1283.62 47.1316C1276.69 47.1316 1270.84 41.2625 1270.84 34.2898V31.3552C1270.84 24.3825 1276.71 18.5133 1283.62 18.5133C1287.07 18.5133 1290.29 19.8427 1292.68 22.2505C1295.08 24.6584 1296.4 27.8939 1296.4 31.3552V50.4173H1299.65V30.7282C1299.45 26.5646 1297.68 22.6769 1294.68 19.7674C1291.66 16.8579 1287.74 15.2527 1283.62 15.2527C1279.41 15.2527 1275.39 16.9332 1272.32 20.0182C1269.27 23.0782 1267.58 27.1164 1267.58 31.3803V34.2647ZM1316.15 26.4392C1317.62 24.9594 1319.51 24.1317 1321.39 24.1317C1325.4 24.1317 1328.52 27.292 1328.52 31.305V34.2396C1328.52 38.2778 1325.38 41.413 1321.39 41.413C1319.44 41.413 1317.57 40.3345 1316.1 38.4032C1314.8 36.6976 1313.95 34.365 1313.82 32.2832L1311.2 35.5439C1311.73 38.0019 1313 40.3846 1314.82 42.04C1316.69 43.7456 1319.04 44.6987 1321.39 44.6987C1327.13 44.6987 1331.79 40.0084 1331.79 34.2647V31.3301C1331.79 28.5962 1330.7 25.9877 1328.7 24.0062C1326.7 21.9997 1324.11 20.8961 1321.39 20.8961C1319.66 20.8961 1316.94 21.5232 1313.7 24.4577C1312.83 25.3356 1310.78 27.3923 1309.53 28.847C1307.43 31.1546 1304.41 34.5908 1301.82 38.0771V43.1687C1304.69 39.4566 1306.34 37.3748 1309.06 34.2396C1311.45 31.3803 1314.45 27.9441 1316.15 26.4392ZM1239.47 20.2941V16.4316C1236.53 14.8514 1233.33 14.1491 1229.09 14.1491C1224.75 14.1491 1220.63 15.7543 1217.51 18.6388C1214.36 21.5482 1212.64 25.3607 1212.64 29.4239V30.4773C1212.64 38.9048 1219.35 45.7521 1227.64 45.7521C1234.35 45.7521 1237.13 43.5449 1237.82 42.8427V33.0357H1226.84V36.2963H1234.78V41.2123H1234.75C1233.73 41.6136 1231.61 42.4664 1227.64 42.4664C1224.5 42.4664 1221.53 41.2374 1219.33 38.9801C1217.11 36.7227 1215.91 33.7129 1215.91 30.4523V29.3988C1215.91 22.9027 1221.95 17.3847 1229.11 17.3847C1234.03 17.4097 1236.98 18.2374 1239.47 20.2941ZM1263.13 24.1317C1264.36 24.1317 1265.4 24.3323 1266.25 24.7336C1266.65 23.7304 1267.08 22.8776 1267.67 21.8743C1266.8 21.2473 1264.68 20.8459 1263.13 20.8459C1257.22 20.8459 1252.75 25.3356 1252.75 31.305V50.3672H1255.99V31.305C1255.99 27.0913 1258.91 24.1317 1263.13 24.1317ZM1207 29.4239V30.4773C1207 36.1458 1209.15 41.413 1213.02 45.3508C1216.88 49.2636 1222.08 51.4206 1227.62 51.4206C1232.08 51.4206 1236.03 50.4173 1239.37 48.4108C1242.12 46.7554 1243.34 45.1 1243.44 44.9495V27.3923H1226.84V30.6529H1240.2V43.9713C1238.62 45.5515 1234.9 48.1851 1227.64 48.1851C1222.9 48.1851 1218.51 46.3541 1215.26 43.0433C1212.04 39.7576 1210.27 35.293 1210.27 30.5024V29.449C1210.27 24.9092 1212.29 20.3945 1215.84 17.0586C1219.45 13.6475 1224.17 11.7664 1229.11 11.7664C1233.73 11.7664 1236.93 12.4686 1239.5 14.0488V10.3618C1236.8 9.20801 1233.58 8.70638 1229.09 8.70638C1217.11 8.70638 1207 18.1873 1207 29.4239ZM1293.98 50.3672V31.305C1293.98 25.4359 1289.41 20.8459 1283.57 20.8459C1280.85 20.8459 1278.26 21.9495 1276.26 23.9561C1274.26 25.9626 1273.17 28.5711 1273.17 31.28V34.2145C1273.17 39.883 1277.93 44.6485 1283.55 44.6485C1285.1 44.6485 1287.19 44.2723 1288.49 43.1938V39.8078C1287.22 40.8361 1285.4 41.4381 1283.55 41.4381C1279.56 41.4381 1276.41 38.2778 1276.41 34.2647V31.3301C1276.41 27.292 1279.56 24.1567 1283.55 24.1567C1287.57 24.1567 1290.69 27.317 1290.69 31.3301V50.3923H1293.98V50.3672ZM1263.13 18.4632C1265.33 18.4632 1267.25 18.9397 1268.97 19.9179C1269.77 18.8896 1270.6 18.087 1271.22 17.4599C1269.4 16.0553 1266.3 15.2026 1263.16 15.2026C1258.64 15.2026 1254.55 16.8329 1251.63 19.8176C1248.73 22.7522 1247.13 26.8405 1247.13 31.3301V50.3923H1250.38V31.3301C1250.35 23.7554 1255.59 18.4632 1263.13 18.4632ZM1332.69 19.9681C1329.65 16.9081 1325.63 15.2026 1321.39 15.2026C1318.29 15.2026 1315.2 16.3563 1313.47 17.5101C1309.93 19.8678 1307.04 22.4512 1301.79 29.2483V34.1393C1306.24 28.3203 1310.43 23.7554 1313.62 21.2222C1315.72 19.5417 1318.69 18.4883 1321.39 18.4883C1328.33 18.4883 1334.17 24.3825 1334.17 31.3301V34.2647C1334.17 37.7009 1332.82 40.9364 1330.37 43.3694C1327.95 45.7772 1324.76 47.1066 1321.39 47.1066C1315.7 47.1066 1310.68 43.1687 1309.33 37.8263L1307.04 40.6104C1308.71 46.2287 1314.75 50.3672 1321.39 50.3672C1325.63 50.3672 1329.62 48.6616 1332.69 45.6016C1335.74 42.5166 1337.43 38.5035 1337.43 34.2396V31.305C1337.43 27.0662 1335.74 23.0281 1332.69 19.9681Z" fill="#696984"/>
<g clip-path="url(#clip1_1203:179)">
<path d="M556.136 23.546C556.136 25.3455 554.674 26.7946 552.86 26.7946C551.046 26.7946 549.586 25.3455 549.586 23.546C549.586 21.7464 550.996 20.2974 552.86 20.2974C554.725 20.3473 556.136 21.7968 556.136 23.546ZM542.633 30.0941V30.894C542.633 30.894 541.071 28.8937 537.746 28.8937C532.255 28.8937 527.972 33.0426 527.972 38.7903C527.972 44.4886 532.204 48.6869 537.746 48.6869C541.122 48.6869 542.633 46.6377 542.633 46.6377V47.487C542.633 47.887 542.936 48.1861 543.338 48.1861H547.419V29.392H543.338C542.936 29.3935 542.633 29.7441 542.633 30.0941ZM542.633 42.1393C541.878 43.2393 540.366 44.189 538.552 44.189C535.328 44.189 532.859 42.1897 532.859 38.7903C532.859 35.3914 535.328 33.3921 538.552 33.3921C540.316 33.3921 541.928 34.3918 542.633 35.4413V42.1393ZM550.442 29.3935H555.279V48.1875H550.442V29.3935ZM622.691 28.8932C619.365 28.8932 617.803 30.8935 617.803 30.8935V20.3473H612.967V48.1875H617.048C617.451 48.1875 617.753 47.8375 617.753 47.4875V46.6382C617.753 46.6382 619.315 48.6874 622.64 48.6874C628.132 48.6874 632.414 44.4901 632.414 38.7918C632.414 33.0935 628.132 28.8932 622.691 28.8932ZM621.885 44.1385C620.02 44.1385 618.559 43.1898 617.803 42.0893V35.3914C618.559 34.3918 620.171 33.3422 621.885 33.3422C625.109 33.3422 627.578 35.3415 627.578 38.7404C627.578 42.1393 625.109 44.1385 621.885 44.1385ZM610.448 37.0417V48.2375H605.611V37.5909C605.611 34.4926 604.603 33.2423 601.884 33.2423C600.424 33.2423 598.912 33.9923 597.953 35.0923V48.1881H593.117V29.394H596.945C597.348 29.394 597.651 29.7441 597.651 30.0941V30.894C599.062 29.444 600.925 28.8937 602.789 28.8937C604.906 28.8937 606.669 29.4944 608.08 30.6938C609.792 32.0934 610.448 33.8924 610.448 37.0417ZM581.377 28.8932C578.052 28.8932 576.49 30.8935 576.49 30.8935V20.3473H571.653V48.1875H575.734C576.137 48.1875 576.44 47.8375 576.44 47.4875V46.6382C576.44 46.6382 578.002 48.6874 581.326 48.6874C586.818 48.6874 591.101 44.4901 591.101 38.7918C591.151 33.093 586.869 28.8932 581.377 28.8932ZM580.57 44.1385C578.706 44.1385 577.246 43.1898 576.49 42.0893V35.3914C577.246 34.3918 578.858 33.3422 580.57 33.3422C583.796 33.3422 586.264 35.3415 586.264 38.7404C586.264 42.1393 583.796 44.1385 580.57 44.1385ZM567.471 28.8932C568.932 28.8932 569.688 29.1439 569.688 29.1439V33.5918C569.688 33.5918 565.657 32.2422 563.139 35.0918V48.237H558.301V29.3935H562.383C562.786 29.3935 563.088 29.7436 563.088 30.0936V30.8935C563.995 29.8434 565.96 28.8932 567.471 28.8932ZM517.241 46.4879C516.989 45.8882 516.737 45.2386 516.485 44.6883C516.082 43.789 515.679 42.9387 515.327 42.1393L515.276 42.0893C511.799 34.5915 508.072 26.9948 504.141 19.4979L503.99 19.1973C503.577 18.4196 503.174 17.6365 502.782 16.848C502.278 15.9478 501.774 14.999 500.968 14.0988C499.356 12.0995 497.038 10.9995 494.57 10.9995C492.05 10.9995 489.783 12.0995 488.121 13.9984C487.365 14.8977 486.811 15.8474 486.307 16.7477C485.914 17.5356 485.511 18.3188 485.099 19.097L484.947 19.3976C481.068 26.8944 477.289 34.4916 473.813 41.989L473.762 42.0883C473.41 42.8892 473.006 43.7386 472.603 44.6374C472.351 45.1876 472.1 45.7873 471.848 46.4369C471.193 48.2859 470.991 50.0356 471.244 51.8356C471.798 55.5845 474.316 58.7323 477.793 60.1329C479.103 60.6831 480.464 60.9328 481.874 60.9328C482.277 60.9328 482.781 60.8829 483.184 60.8324C484.847 60.6327 486.56 60.0834 488.223 59.1337C490.289 57.9838 492.254 56.335 494.47 53.9358C496.687 56.335 498.702 57.9838 500.717 59.1337C502.381 60.0834 504.093 60.6327 505.756 60.8324C506.159 60.8834 506.663 60.9328 507.066 60.9328C508.477 60.9328 509.887 60.6831 511.147 60.1329C514.674 58.7323 517.142 55.5346 517.697 51.8356C518.097 50.0865 517.896 48.3379 517.241 46.4879ZM494.519 49.0868C491.798 45.6879 490.034 42.4893 489.43 39.7909C489.179 38.641 489.128 37.6414 489.279 36.7416C489.38 35.9417 489.683 35.2416 490.086 34.6419C491.043 33.2932 492.655 32.4429 494.52 32.4429C496.384 32.4429 498.047 33.2428 498.954 34.6419C499.357 35.2416 499.659 35.9422 499.761 36.7416C499.911 37.6419 499.861 38.6909 499.609 39.7909C499.003 42.4393 497.239 45.6385 494.519 49.0868ZM514.621 51.4362C514.268 54.0351 512.505 56.2851 510.036 57.2847C508.827 57.784 507.517 57.9343 506.208 57.784C504.948 57.6337 503.688 57.2338 502.379 56.4848C500.565 55.4842 498.751 53.9358 496.635 51.6359C499.96 47.5879 501.975 43.8884 502.731 40.5904C503.084 39.0405 503.135 37.6413 502.983 36.3411C502.782 35.0918 502.328 33.9419 501.623 32.9422C500.06 30.6923 497.44 29.3935 494.519 29.3935C491.597 29.3935 488.977 30.7432 487.415 32.9422C486.71 33.9419 486.256 35.0918 486.055 36.3411C485.853 37.6413 485.903 39.0904 486.306 40.5904C487.062 43.8884 489.127 47.6373 492.402 51.6858C490.336 53.9852 488.472 55.5351 486.658 56.5348C485.348 57.2847 484.089 57.6847 482.83 57.834C481.47 57.9843 480.159 57.7841 479.001 57.3347C476.532 56.335 474.769 54.0851 474.417 51.4861C474.266 50.2368 474.366 48.9875 474.87 47.5879C475.02 47.0875 475.273 46.5882 475.525 45.9885C475.878 45.1886 476.28 44.3383 476.683 43.4889L476.734 43.3896C480.21 35.9417 483.938 28.3444 487.818 20.9475L487.969 20.6469C488.372 19.8979 488.776 19.098 489.178 18.348C489.581 17.5481 490.034 16.7981 490.589 16.148C491.647 14.9496 493.057 14.299 494.62 14.299C496.182 14.299 497.592 14.9496 498.65 16.148C499.205 16.7996 499.658 17.5496 500.061 18.348C500.465 19.098 500.868 19.8979 501.27 20.6469L501.422 20.9475C505.242 28.3752 508.92 35.8739 512.455 43.4395V43.4894C512.859 44.2903 513.211 45.1891 513.614 45.99C513.866 46.5887 514.118 47.0881 514.269 47.5884C514.671 48.8866 514.822 50.1369 514.621 51.4362Z" fill="#696984"/>
</g>
<g clip-path="url(#clip2_1203:179)">
<path d="M387.28 35.383L395.376 56.6759C392.99 56.3374 390.606 55.9134 388.178 55.5314L383.617 43.7662L378.931 54.5602C376.631 54.1782 374.372 54.0509 372.072 53.7543L380.294 35.1299L372.836 16.0407H379.739L383.914 26.7061L388.389 16.0407H395.375L387.28 35.383ZM367.386 16.0407H361.122V52.951C363.168 53.0784 365.297 53.1623 367.386 53.4156V16.0407ZM355.711 52.5272C350.003 52.1465 344.293 51.8093 338.456 51.6806V16.0409H344.846V45.6705C348.511 45.7546 352.174 46.0499 355.711 46.2192V52.5272ZM331.638 30.4757V36.8242H322.904V51.2579H316.6V16.0407H334.494V22.3893H322.905V30.4758H331.639L331.638 30.4757ZM305.861 22.3893V51.5965C303.73 51.5965 301.559 51.5965 299.47 51.6806V22.3893H292.866V16.0407H312.506V22.3893H305.861ZM285.964 37.1616C283.153 37.1616 279.829 37.1616 277.443 37.2903V46.7284C281.192 46.4738 284.942 46.1785 288.733 46.0512V52.1465L271.053 53.5443V16.0407H288.732V22.3893H277.443V30.9402C279.915 30.9402 283.706 30.813 285.964 30.813V37.1629L285.964 37.1616ZM250.557 33.6059V55.786C248.258 56.0406 246.212 56.3373 244.04 56.6759V16.0407H250.133L258.44 39.1109V16.0407H264.832V54.0509C262.574 54.4329 260.272 54.5602 257.844 54.8975L250.557 33.6059Z" fill="#696984"/>
</g>
<g clip-path="url(#clip3_1203:179)">
<path fill-rule="evenodd" clip-rule="evenodd" d="M803.483 49.0465C794.588 55.6005 781.65 59.0923 770.492 59.0923C754.859 59.0923 740.843 53.3442 730.169 43.7819C729.361 43.0298 730.061 42.0091 731.086 42.6001C742.568 49.2614 756.745 53.2368 771.408 53.2368C781.273 53.2368 792.162 51.1954 802.189 46.9514C803.698 46.3605 804.938 47.9721 803.483 49.0465Z" fill="#696984"/>
<path fill-rule="evenodd" clip-rule="evenodd" d="M807.202 44.8026C806.07 43.3521 799.655 44.1042 796.798 44.4802C795.936 44.5877 795.774 43.8356 796.583 43.2984C801.704 39.6991 810.059 40.7735 811.03 41.9554C812 43.1372 810.76 51.5176 805.962 55.493C805.208 56.0839 804.507 55.7616 804.83 54.9558C805.908 52.2697 808.334 46.3067 807.202 44.8026Z" fill="#696984"/>
<path fill-rule="evenodd" clip-rule="evenodd" d="M796.96 18.0497V14.5579C796.96 14.0207 797.337 13.6984 797.822 13.6984H813.455C813.941 13.6984 814.372 14.0744 814.372 14.5579V17.5125C814.372 17.996 813.941 18.6407 813.186 19.7151L805.1 31.2113C808.119 31.1576 811.299 31.5873 813.994 33.0915C814.587 33.4138 814.749 33.951 814.803 34.4345V38.1413C814.803 38.6785 814.264 39.2694 813.671 38.9471C808.873 36.4222 802.458 36.1536 797.176 39.0008C796.636 39.2694 796.043 38.7322 796.043 38.195V34.6494C796.043 34.1122 796.043 33.1452 796.636 32.2857L806.016 18.9093H797.876C797.391 18.9093 796.96 18.5332 796.96 18.0497ZM739.98 39.6991H735.237C734.805 39.6454 734.428 39.3231 734.374 38.8933V14.6116C734.374 14.1281 734.805 13.7521 735.29 13.7521H739.711C740.196 13.7521 740.519 14.1281 740.573 14.5579V17.7274H740.681C741.813 14.6653 744.023 13.2149 746.934 13.2149C749.899 13.2149 751.786 14.6653 753.08 17.7274C754.212 14.6653 756.853 13.2149 759.656 13.2149C761.651 13.2149 763.807 14.0207 765.155 15.9009C766.664 17.9423 766.341 20.8969 766.341 23.5292V38.8933C766.341 39.3768 765.91 39.7529 765.424 39.7529H760.735C760.249 39.6992 759.872 39.3231 759.872 38.8933V26.0004C759.872 24.9797 759.98 22.4011 759.764 21.4341C759.387 19.8225 758.363 19.339 756.961 19.339C755.829 19.339 754.589 20.0911 754.104 21.3267C753.619 22.5623 753.673 24.6036 753.673 26.0004V38.8933C753.673 39.3768 753.241 39.7529 752.756 39.7529H748.012C747.527 39.6992 747.15 39.3231 747.15 38.8933V26.0004C747.15 23.3144 747.581 19.2853 744.239 19.2853C740.843 19.2853 740.951 23.1532 740.951 26.0004V38.8933C740.897 39.3231 740.519 39.6991 739.98 39.6991ZM827.849 13.2149C834.91 13.2149 838.738 19.2316 838.738 26.9136C838.738 34.3271 834.533 40.2364 827.849 40.2364C820.948 40.2364 817.175 34.2197 817.175 26.6988C817.121 19.1242 820.948 13.2149 827.849 13.2149ZM827.849 18.2109C824.345 18.2109 824.129 22.992 824.129 25.9467C824.129 28.9013 824.075 35.2403 827.795 35.2403C831.46 35.2403 831.676 30.1369 831.676 27.0211C831.676 24.9797 831.568 22.5086 830.975 20.5746C830.436 18.8556 829.358 18.2109 827.849 18.2109ZM847.848 39.6991H843.104C842.619 39.6454 842.242 39.2694 842.242 38.8396V14.5042C842.296 14.0744 842.673 13.6984 843.158 13.6984H847.578C848.01 13.6984 848.333 14.0207 848.441 14.3967V18.1035H848.549C849.896 14.7728 851.729 13.2149 855.018 13.2149C857.12 13.2149 859.222 13.967 860.57 16.0621C861.81 17.996 861.81 21.273 861.81 23.6367V38.9471C861.756 39.3768 861.379 39.6991 860.893 39.6991H856.15C855.718 39.6454 855.341 39.3231 855.287 38.9471V25.7318C855.287 23.0457 855.611 19.1779 852.322 19.1779C851.19 19.1779 850.112 19.93 849.573 21.1118C848.926 22.616 848.818 24.0664 848.818 25.7318V38.8396C848.764 39.3231 848.333 39.6991 847.848 39.6991ZM784.507 28.0955C784.507 29.922 784.561 31.4799 783.645 33.1452C782.89 34.4883 781.704 35.2941 780.357 35.2941C778.524 35.2941 777.446 33.8973 777.446 31.8559C777.446 27.8269 781.057 27.0748 784.507 27.0748V28.0955ZM789.305 39.6454C788.982 39.914 788.55 39.9678 788.173 39.7529C786.61 38.4636 786.286 37.8189 785.424 36.5834C782.836 39.2157 780.95 40.0215 777.607 40.0215C773.618 40.0215 770.492 37.5503 770.492 32.6618C770.492 28.7939 772.594 26.2153 775.559 24.926C778.146 23.7978 781.758 23.583 784.507 23.2606V22.6697C784.507 21.5416 784.615 20.1986 783.914 19.2316C783.321 18.3721 782.243 17.996 781.273 17.996C779.44 17.996 777.823 18.9093 777.446 20.8432C777.338 21.273 777.068 21.7027 776.637 21.7027L772.055 21.2193C771.678 21.1118 771.246 20.8432 771.354 20.2523C772.432 14.6653 777.446 13 781.974 13C784.292 13 787.311 13.5909 789.143 15.3637C791.461 17.5125 791.246 20.4135 791.246 23.5292V30.889C791.246 33.0915 792.162 34.0585 793.025 35.2941C793.348 35.7238 793.402 36.261 793.025 36.5296C792 37.3354 790.275 38.8396 789.305 39.6454ZM722.245 28.0955C722.245 29.922 722.299 31.4799 721.383 33.1452C720.628 34.4883 719.442 35.2941 718.094 35.2941C716.261 35.2941 715.183 33.8973 715.183 31.8559C715.183 27.8269 718.795 27.0748 722.245 27.0748V28.0955ZM726.989 39.6454C726.665 39.914 726.234 39.9678 725.857 39.7529C724.293 38.4636 723.97 37.8189 723.108 36.5834C720.52 39.2157 718.633 40.0215 715.291 40.0215C711.302 40.0215 708.175 37.5503 708.175 32.6618C708.175 28.7939 710.278 26.2153 713.243 24.926C715.83 23.7978 719.442 23.583 722.191 23.2606V22.6697C722.191 21.5416 722.299 20.1986 721.598 19.2316C721.005 18.3721 719.927 17.996 718.957 17.996C717.124 17.996 715.507 18.9093 715.129 20.8432C715.022 21.273 714.752 21.7027 714.321 21.7027L709.739 21.2193C709.361 21.1118 708.93 20.8432 709.038 20.2523C710.116 14.6653 715.129 13 719.658 13C721.976 13 724.994 13.5909 726.827 15.3637C729.145 17.5125 728.929 20.4135 728.929 23.5292V30.889C728.929 33.0915 729.846 34.0585 730.708 35.2941C731.032 35.7238 731.086 36.261 730.708 36.5296C729.684 37.3354 727.959 38.8396 726.989 39.6454Z" fill="#696984"/>
</g>
<path d="M1037.1 31.6554C1035.5 31.6554 1034.35 32.1809 1033.19 32.7162V44.8298C1034.3 44.9367 1034.95 44.9367 1036.01 44.9367C1039.84 44.9367 1040.36 43.1753 1040.36 40.7159V34.9304C1040.36 33.1141 1039.76 31.6554 1037.1 31.6554ZM1011.65 30.9943C1008.99 30.9943 1008.38 32.4593 1008.38 34.2738V35.2933H1014.91V34.2738C1014.91 32.4593 1014.3 30.9943 1011.65 30.9943ZM962.344 43.6028C962.344 45.0382 963.019 45.7837 964.508 45.7837C966.105 45.7837 967.051 45.261 968.218 44.7238V41.8504H964.724C963.07 41.8504 962.344 42.1594 962.344 43.6028ZM1061.86 31.6554C1059.2 31.6554 1058.27 33.1141 1058.27 34.9304V41.5584C1058.27 43.3792 1059.2 44.8424 1061.86 44.8424C1064.52 44.8424 1065.45 43.3792 1065.45 41.5584V34.9304C1065.44 33.1141 1064.52 31.6554 1061.86 31.6554ZM949.291 51.0348H941.462V32.0156H937.55V25.4621H941.462V21.526C941.462 16.1788 943.67 13 949.946 13H955.171V19.5553H951.905C949.462 19.5553 949.301 20.4715 949.301 22.1808L949.291 25.4612H955.207L954.515 32.0147H949.291V51.0348ZM976.049 51.0842H969.523L969.241 49.4279C966.262 51.0842 963.603 51.3528 961.849 51.3528C957.063 51.3528 954.516 48.1443 954.516 43.707C954.516 38.4721 957.488 36.6038 962.806 36.6038H968.218V35.472C968.218 32.7998 967.912 32.0156 963.818 32.0156H957.123L957.777 25.4621H965.095C974.079 25.4621 976.049 28.3104 976.049 35.525V51.0842ZM998.239 32.4962C994.178 31.7973 993.012 31.6437 991.058 31.6437C987.549 31.6437 986.488 32.4207 986.488 35.4118V41.0698C986.488 44.0609 987.549 44.8415 991.058 44.8415C993.012 44.8415 994.178 44.6852 998.239 43.9837V50.3764C994.682 51.1767 992.365 51.3869 990.406 51.3869C982.001 51.3869 978.66 46.9505 978.66 40.5416V35.9508C978.66 29.5365 982.001 25.092 990.406 25.092C992.365 25.092 994.682 25.3031 998.239 26.107V32.4962ZM1022.74 40.5416H1008.38V41.0698C1008.38 44.0609 1009.44 44.8415 1012.95 44.8415C1016.11 44.8415 1018.03 44.6852 1022.08 43.9837V50.3764C1018.18 51.1767 1016.14 51.3869 1012.3 51.3869C1003.9 51.3869 1000.55 46.9505 1000.55 40.5416V35.2924C1000.55 29.6847 1003.03 25.092 1011.65 25.092C1020.26 25.092 1022.74 29.6317 1022.74 35.2924V40.5416ZM1048.19 40.6629C1048.19 46.8571 1046.43 51.3752 1035.74 51.3752C1031.88 51.3752 1029.62 51.0348 1025.36 50.3773V14.9689L1033.19 13.6584V26.0441C1034.88 25.4136 1037.07 25.0929 1039.06 25.0929C1046.89 25.0929 1048.19 28.6149 1048.19 34.2747V40.6629H1048.19ZM1073.28 40.7976C1073.28 46.1412 1071.08 51.324 1061.89 51.324C1052.68 51.324 1050.44 46.1412 1050.44 40.7976V35.6382C1050.44 30.2919 1052.68 25.1082 1061.89 25.1082C1071.08 25.1082 1073.28 30.2919 1073.28 35.6382V40.7976ZM1098.35 40.7976C1098.35 46.1412 1096.15 51.324 1086.96 51.324C1077.76 51.324 1075.52 46.1412 1075.52 40.7976V35.6382C1075.52 30.2919 1077.76 25.1082 1086.96 25.1082C1096.15 25.1082 1098.35 30.2919 1098.35 35.6382V40.7976ZM1124.08 51.0348H1115.6L1108.42 39.0137V51.0348H1100.6V14.968L1108.42 13.6575V36.8759L1115.6 25.4621H1124.08L1116.25 37.9179L1124.08 51.0348ZM1086.93 31.6554C1084.27 31.6554 1083.35 33.1141 1083.35 34.9304V41.5584C1083.35 43.3792 1084.27 44.8424 1086.93 44.8424C1089.59 44.8424 1090.53 43.3792 1090.53 41.5584V34.9304C1090.53 33.1141 1089.59 31.6554 1086.93 31.6554ZM1128.55 46.549C1129.87 46.549 1130.92 47.6278 1130.92 48.9751C1130.92 50.3432 1129.87 51.4103 1128.54 51.4103C1127.22 51.4103 1126.15 50.3432 1126.15 48.9751C1126.15 47.6278 1127.22 46.549 1128.54 46.549H1128.55ZM1128.54 46.9263C1127.48 46.9263 1126.61 47.8434 1126.61 48.9751C1126.61 50.1276 1127.48 51.033 1128.55 51.033C1129.62 51.0438 1130.48 50.1276 1130.48 48.9859C1130.48 47.8443 1129.62 46.9263 1128.55 46.9263H1128.54ZM1128.09 50.3872H1127.66V47.6799C1127.89 47.6485 1128.1 47.617 1128.43 47.617C1128.83 47.617 1129.1 47.7033 1129.26 47.8209C1129.42 47.9404 1129.51 48.1227 1129.51 48.3805C1129.51 48.738 1129.27 48.9527 1128.98 49.0398V49.0605C1129.22 49.1045 1129.38 49.3183 1129.43 49.7162C1129.5 50.1375 1129.56 50.2982 1129.6 50.3863H1129.15C1129.09 50.2982 1129.02 50.0512 1128.97 49.6946C1128.91 49.3506 1128.73 49.2213 1128.39 49.2213H1128.09V50.3872H1128.09ZM1128.09 48.8889H1128.4C1128.76 48.8889 1129.06 48.7587 1129.06 48.4236C1129.06 48.1865 1128.89 47.9503 1128.4 47.9503C1128.26 47.9503 1128.17 47.961 1128.09 47.9709V48.8889Z" fill="#696984"/>
<defs>
<clipPath id="clip0_1203:179">
<rect width="168.303" height="54.6985" fill="white" transform="translate(0 11)"/>
</clipPath>
<clipPath id="clip1_1203:179">
<rect width="161.323" height="49.9333" fill="white" transform="translate(471.113 11)"/>
</clipPath>
<clipPath id="clip2_1203:179">
<rect width="151.336" height="40.7149" fill="white" transform="translate(244.04 16)"/>
</clipPath>
<clipPath id="clip3_1203:179">
<rect width="153.641" height="46.0923" fill="white" transform="translate(861.813 59.0923) rotate(-180)"/>
</clipPath>
</defs>
</svg>
